<svg xmlns="http://www.w3.org/2000/svg" xmlns:xlink="http://www.w3.org/1999/xlink" viewBox="0 0 110 110" version="1.1" x="0px" y="0px"><title>Chartlines Copy</title><desc>Created with Sketch.</desc><g stroke="none" stroke-width="1" fill="none" fill-rule="evenodd"><g fill="#FFF"><path d="M96.7120677,43.0505076 C101.750843,46.9442122 105,53.0749832 105,59.9710145 C105,71.7370809 95.5412271,81.2753623 83.8732394,81.2753623 C78.2724901,81.2753623 73.1807648,79.0776518 69.3998562,75.4907632 C65.1206294,79.1017352 59.6078123,81.2753623 53.5915493,81.2753623 C45.5081884,81.2753623 38.3336585,77.3514855 33.8389084,71.2895669 C31.4497208,72.2346801 28.8483384,72.7536232 26.1267606,72.7536232 C14.4587729,72.7536232 5,63.2153418 5,51.4492754 C5,39.683209 14.4587729,30.1449275 26.1267606,30.1449275 C26.1889116,30.1449275 26.2509999,30.1451982 26.3130245,30.1457383 C26.1901751,29.2162193 26.1267606,28.2677514 26.1267606,27.3043478 C26.1267606,15.5382814 35.5855335,6 47.2535211,6 C55.4221844,6 62.5080483,10.6749847 66.0235352,17.5164666 C69.1855172,15.6144729 72.8817045,14.5217391 76.8309859,14.5217391 C88.4989736,14.5217391 97.9577465,24.0600205 97.9577465,35.826087 C97.9577465,38.3621231 97.5183232,40.7946638 96.7120677,43.0505076 Z M30.3521127,98.3188406 C25.6849176,98.3188406 21.9014085,94.503528 21.9014085,89.7971014 C21.9014085,85.0906749 25.6849176,81.2753623 30.3521127,81.2753623 C35.0193077,81.2753623 38.8028169,85.0906749 38.8028169,89.7971014 C38.8028169,94.503528 35.0193077,98.3188406 30.3521127,98.3188406 Z M16.2676056,104 C13.9340081,104 12.0422535,102.092344 12.0422535,99.7391304 C12.0422535,97.3859172 13.9340081,95.4782609 16.2676056,95.4782609 C18.6012032,95.4782609 20.4929577,97.3859172 20.4929577,99.7391304 C20.4929577,102.092344 18.6012032,104 16.2676056,104 Z"/></g></g></svg>
